<svg width="46" height="44" viewBox="0 0 46 44" fill="none" xmlns="http://www.w3.org/2000/svg">
<g clip-path="url(#clip0_4592_76481)">
<path d="M33.105 43.1461H12.9495C8.12526 43.1461 4.20117 39.222 4.20117 34.3978V14.2434C4.20117 9.41921 8.12526 5.49512 12.9495 5.49512H33.105C37.9292 5.49512 41.8533 9.41921 41.8533 14.2434V34.399C41.8533 39.2232 37.9292 43.1473 33.105 43.1473V43.1461Z" fill="#EFF2F4"/>
<path d="M40.4953 21.5435H5.5636C4.29015 21.5435 3.25781 22.5758 3.25781 23.8492C3.25781 25.1227 4.29015 26.155 5.5636 26.155H40.4953C41.7688 26.155 42.8011 25.1227 42.8011 23.8492C42.8011 22.5758 41.7688 21.5435 40.4953 21.5435Z" fill="#FF2B85"/>
<path d="M37.4547 24.6183H6.18359L10.1077 38.3786C10.4396 39.5409 11.3208 40.3182 12.3083 40.3182H33.7609C34.7484 40.3182 35.6296 39.5421 35.9616 38.3786L39.8857 24.6183H37.4547Z" fill="#FF2B85"/>
<path d="M6.65625 26.1101H39.4346L38.9987 27.6056H7.0307L6.65625 26.1101Z" fill="#A50552"/>
<path d="M14.9512 30.0826L16.1808 35.7502" stroke="#FFD271" stroke-width="2.83499" stroke-miterlimit="10" stroke-linecap="round"/>
<path d="M22.9863 30.2516L23.1186 35.8176" stroke="#FFD271" stroke-width="2.83499" stroke-miterlimit="10" stroke-linecap="round"/>
<path d="M31.0258 30.4193L30.0596 35.8849" stroke="#FFD271" stroke-width="2.83499" stroke-miterlimit="10" stroke-linecap="round"/>
<path d="M11.2466 18.4367L7.16306 17.6382L4.19105 20.55L3.68784 16.4203L0 14.4926L3.77289 12.7384L4.46628 8.63477L7.30127 11.6812L11.4167 11.0729L9.3968 14.7099L11.2466 18.4367Z" fill="#FFD271"/>
<path d="M40.976 20.0918L38.4576 16.7808L34.3008 16.978L36.6727 13.5583L35.2009 9.66732L39.1852 10.8651L42.4313 8.26282L42.5222 12.4232L46.001 14.7065L42.0734 16.0779L40.976 20.0918Z" fill="#FFD271"/>
<path d="M27.7692 14.5931L23.0276 12.1007L18.2861 14.5931L19.191 9.31293L15.3555 5.57429L20.6569 4.80412L23.0276 0L25.3984 4.80412L30.6986 5.57429L26.8631 9.31293L27.7692 14.5931Z" fill="#FFD271"/>
</g>
<defs>
<clipPath id="clip0_4592_76481">
<rect width="46" height="43.1461" fill="white"/>
</clipPath>
</defs>
</svg>
