<svg width="45" height="38" viewBox="0 0 45 38" fill="none" xmlns="http://www.w3.org/2000/svg">
<g clip-path="url(#clip0_4561_88747)">
<path d="M33.7954 37.0899H14.1782C9.48329 37.0899 5.66309 33.2605 5.66309 28.5541V8.88957C5.66424 4.18203 9.48329 0.35376 14.1782 0.35376H33.7954C38.4903 0.35376 42.3105 4.18318 42.3105 8.88957V28.5552C42.3105 33.2616 38.4915 37.0911 33.7954 37.0911V37.0899Z" fill="#EFF2F4"/>
<path d="M23.2297 23.1666C23.2297 23.1666 23.2205 23.2127 23.2009 23.3026L23.1836 23.3775C22.9278 24.5391 21.5841 30.3622 18.982 37.1567H14.1523C12.7198 37.1567 11.3704 36.7499 10.1846 36.032C12.169 32.0885 17.2983 21.8102 18.2064 19.9929C18.2064 19.9906 18.2076 19.9883 18.2087 19.986C18.2963 19.8108 18.3435 19.7163 18.3435 19.7163L23.2297 23.1666V23.1666Z" fill="#E09577"/>
<path d="M20.8997 5.96832L21.3825 12.8032L22.241 14.0397C22.2445 13.9982 22.7642 9.9199 22.7642 9.9199C22.9071 9.31258 23.1906 9.11783 23.7092 9.19619C23.7092 9.19619 24.2324 9.225 24.2036 10.2138L24.8524 16.6603C24.8524 16.6603 25.364 20.235 23.6769 21.2964L23.095 23.7395L17.7283 21.2964C17.7283 21.2964 18.5015 19.2889 18.5015 18.9397C18.5015 18.5905 17.2512 11.7257 17.2512 11.7257C17.2512 11.7257 17.1348 10.6494 17.1348 10.0386C17.8112 6.50419 18.5603 4.92655 18.5603 4.92655C18.8034 4.61771 19.2125 4.37225 19.3958 4.27084C19.6274 3.80412 19.7818 3.49297 19.7818 3.49297C20.0584 2.96978 20.6104 3.26019 20.6104 3.26019C20.6104 3.26019 21.3814 3.55059 20.8985 5.96717L20.8997 5.96832Z" fill="#E09577"/>
<path d="M22.1674 14.7669C22.1674 14.7669 20.6981 12.5093 20.5506 11.698C20.4031 10.8867 20.584 8.97837 20.5264 8.01496C20.4273 6.36818 20.9747 5.0072 20.9747 5.0072C21.6143 5.58916 21.4979 6.6655 21.4979 6.6655C21.4979 6.6655 21.3803 8.57042 21.4103 9.05097C21.4403 9.53152 21.7664 12.454 21.7664 12.454L22.3553 13.3483L22.1663 14.7669H22.1674Z" fill="#D16349"/>
<path d="M24.8478 17.1847L24.2163 9.50162C23.8452 9.12363 23.7369 9.23311 23.7369 9.23311C23.7369 9.23311 23.5029 11.7534 23.3658 12.7237C23.3658 12.7237 22.4854 17.2976 22.8783 18.8257C23.2713 20.3526 23.4015 20.484 23.6781 21.2987C23.6781 21.2987 24.3477 20.9495 24.5655 20.121L24.8478 17.1858V17.1847Z" fill="#D16349"/>
<path d="M27.2877 5.99835L26.8048 12.8332L25.9463 14.0697C25.9428 14.0283 25.4231 9.94993 25.4231 9.94993C25.2802 9.34261 24.9967 9.14786 24.4781 9.22622C24.4781 9.22622 23.9549 9.25503 23.9838 10.2438L23.335 16.6903C23.335 16.6903 23.0538 19.902 24.7409 20.9634L25.2065 23.6105L30.3266 21.5592C30.3266 21.5592 29.687 19.3189 29.687 18.9697C29.687 18.6206 30.9373 11.7557 30.9373 11.7557C30.9373 11.7557 31.0537 10.6794 31.0537 10.0686C30.3773 6.53422 29.6282 4.95658 29.6282 4.95658C29.385 4.64774 28.9759 4.40228 28.7927 4.30087C28.5611 3.83415 28.4067 3.523 28.4067 3.523C28.1301 2.99981 27.5781 3.29022 27.5781 3.29022C27.5781 3.29022 26.8071 3.58062 27.29 5.9972L27.2877 5.99835Z" fill="#E09577"/>
<path d="M26.0199 14.7957C26.0199 14.7957 27.3417 12.1601 27.4892 11.3488C27.6367 10.5376 27.6033 9.00718 27.6609 8.04377C27.76 6.39699 27.2126 5.03601 27.2126 5.03601C26.573 5.61797 26.6894 6.69431 26.6894 6.69431C26.6894 6.69431 26.807 8.59923 26.777 9.07978C26.747 9.56033 26.4209 12.4828 26.4209 12.4828L25.832 13.3771L26.021 14.7957H26.0199Z" fill="#D16349"/>
<path d="M38.0018 35.8765C36.7583 36.6913 35.3201 37.1568 33.7875 37.1568H28.4795C27.0125 33.0462 25.0223 27.0883 24.332 23.1875L25.0557 22.7542L29.8693 19.8732L30.9894 19.2036C30.9894 19.2036 35.7039 29.9186 38.0018 35.8765V35.8765Z" fill="#FF2B85"/>
<path d="M34.1863 18.3737C34.8323 18.3737 35.356 17.85 35.356 17.204C35.356 16.558 34.8323 16.0343 34.1863 16.0343C33.5403 16.0343 33.0166 16.558 33.0166 17.204C33.0166 17.85 33.5403 18.3737 34.1863 18.3737Z" fill="#FFD271"/>
<path d="M6.06768 12.3284C7.04082 12.3284 7.8297 11.5395 7.8297 10.5663C7.8297 9.5932 7.04082 8.80432 6.06768 8.80432C5.09455 8.80432 4.30566 9.5932 4.30566 10.5663C4.30566 11.5395 5.09455 12.3284 6.06768 12.3284Z" fill="#FF2B85"/>
<path d="M1.05762 16.2683C1.05762 16.2683 6.88069 14.3495 12.0457 18.1986" stroke="#FF2B85" stroke-width="2.1135" stroke-miterlimit="10" stroke-linecap="round"/>
<path d="M7.16016 1.09241C7.79282 1.79422 7.07603 2.44071 7.7087 3.14368C8.34136 3.84664 9.05931 3.19899 9.69197 3.90195C10.3246 4.60492 9.60785 5.25026 10.2405 5.95322C10.8732 6.65619 11.5911 6.00969 12.2249 6.7115C12.8588 7.41446 12.1408 8.06096 12.7746 8.76392" stroke="#FFD271" stroke-width="2.18495" stroke-miterlimit="10" stroke-linecap="round"/>
<path d="M37.6558 23.0017C38.7677 23.0017 39.6691 22.1003 39.6691 20.9885C39.6691 19.8766 38.7677 18.9752 37.6558 18.9752C36.5439 18.9752 35.6426 19.8766 35.6426 20.9885C35.6426 22.1003 36.5439 23.0017 37.6558 23.0017Z" fill="#FF2B85"/>
<path d="M43.943 11.9917C43.943 11.9917 41.2867 13.5451 39.4844 16.7995" stroke="#FF2B85" stroke-width="2.1135" stroke-miterlimit="10" stroke-linecap="round"/>
</g>
<defs>
<clipPath id="clip0_4561_88747">
<rect width="45" height="37.1579" fill="white"/>
</clipPath>
</defs>
</svg>
