<svg width="48" height="36" viewBox="0 0 48 36" fill="none" xmlns="http://www.w3.org/2000/svg">
<g clip-path="url(#clip0_4658_69200)">
<path d="M39.2123 36H19.9932C15.3969 36 11.6475 32.2506 11.6475 27.6333V8.36669C11.6494 3.76082 15.3988 0 19.9932 0H39.2123C43.8086 0 47.558 3.74941 47.558 8.36669V27.6314C47.558 32.2392 43.82 35.9981 39.2123 35.9981V36Z" fill="#EFF2F4"/>
<path d="M30.4455 34.0225C36.4727 34.0225 41.3587 33.23 41.3587 32.2524C41.3587 31.2749 36.4727 30.4824 30.4455 30.4824C24.4183 30.4824 19.5322 31.2749 19.5322 32.2524C19.5322 33.23 24.4183 34.0225 30.4455 34.0225Z" fill="#B7D2E2"/>
<path d="M17.9651 17.1521L6.31152 11.0408" stroke="#FF2B85" stroke-width="2.93672" stroke-miterlimit="10" stroke-linecap="round"/>
<path d="M10.4576 18.882C9.52123 18.7012 9.66588 17.9532 8.72948 17.7724C7.79308 17.5916 7.64843 18.3396 6.71203 18.1588C5.77563 17.978 5.92028 17.23 4.98388 17.0492C4.04748 16.8684 3.90283 17.6163 2.96643 17.4355C2.03003 17.2547 2.17468 16.5067 1.23828 16.3259" stroke="#FF2B85" stroke-width="2.47423" stroke-miterlimit="10" stroke-linecap="round"/>
<path d="M6.59551 5.98582C7.52577 5.98582 8.27989 5.2317 8.27989 4.30144C8.27989 3.37119 7.52577 2.61707 6.59551 2.61707C5.66525 2.61707 4.91113 3.37119 4.91113 4.30144C4.91113 5.2317 5.66525 5.98582 6.59551 5.98582Z" fill="#FFD270"/>
<path d="M12.5237 25.928C13.7525 25.928 14.7486 24.9318 14.7486 23.7031C14.7486 22.4743 13.7525 21.4781 12.5237 21.4781C11.295 21.4781 10.2988 22.4743 10.2988 23.7031C10.2988 24.9318 11.295 25.928 12.5237 25.928Z" fill="#FF2B85"/>
<path d="M26.548 17.4339C32.8326 14.7237 39.9717 14.9711 42.4935 17.9877C45.0153 21.0044 41.9644 25.6464 35.6798 28.3567C29.3953 31.0669 22.2543 30.8195 19.7325 27.8028C17.2107 24.7862 20.2635 20.1441 26.548 17.4339Z" fill="#FFD270"/>
<path d="M40.2193 18.9659C40.0385 18.7527 39.831 18.5548 39.5931 18.374C37.8002 17.0036 34.4848 16.663 31.0208 17.3957C29.8561 17.6431 28.676 18.0105 27.5303 18.4996C27.5074 18.5091 27.4884 18.5167 27.4656 18.5262C26.9384 18.7546 26.4378 19.0001 25.9696 19.2571C24.9666 19.809 24.1025 20.4257 23.4002 21.0747C21.8072 22.5402 21.0516 24.1694 21.3771 25.5759C21.4818 26.0136 21.6892 26.4361 22.0109 26.8187C22.736 27.6866 23.9408 28.2671 25.4177 28.5545C26.394 28.7448 27.4884 28.8076 28.6456 28.7372C29.1233 28.7105 29.6124 28.661 30.1054 28.5868C31.3063 28.4117 32.5473 28.1034 33.7634 27.658C34.1022 27.5362 34.4372 27.403 34.7722 27.2584C39.8005 25.0905 42.2405 21.3773 40.2212 18.9621L40.2193 18.9659Z" fill="#FFBD39"/>
<path d="M43.2368 19.3485L43.8268 21.3641C44.6833 24.2874 41.6724 28.0426 36.2728 30.3702C29.9883 33.0805 22.8473 32.833 20.3255 29.8164C19.9696 29.392 19.726 28.9352 19.5851 28.4556L18.9951 26.44C19.136 26.9196 19.3796 27.3764 19.7355 27.8009C22.2573 30.8175 29.3964 31.0649 35.6828 28.3547C41.0824 26.0251 44.0952 22.2719 43.2368 19.3485Z" fill="#FFBD39"/>
<path d="M39.5928 18.3739C36.9301 16.8932 32.0654 17.0436 27.7127 18.9221C23.7292 20.6388 21.3215 23.3091 21.3767 25.5777C20.8419 23.2615 23.24 20.3495 27.4652 18.5281C32.0426 16.5506 37.187 16.5392 39.5928 18.3739V18.3739Z" fill="#F1A915"/>
<path d="M27.6717 28.0253C27.0894 28.0234 26.5355 27.9834 26.0121 27.9073L24.2383 21.3278C24.6246 21.0004 25.051 20.6883 25.5173 20.3914L27.6717 28.0253Z" fill="#FFD270"/>
<path d="M32.8666 27.1861C32.1415 27.4182 31.403 27.6067 30.657 27.7456L28.4111 18.945C29.0868 18.6842 29.7815 18.4615 30.4895 18.2845L32.8666 27.188V27.1861Z" fill="#FFD270"/>
<path d="M19.9784 0.611043C24.5595 0.810884 28.7923 3.0453 29.4318 5.60137C30.0713 8.15553 26.8777 10.0645 22.2946 9.86465C17.7116 9.66481 13.4788 7.43039 12.8393 4.87433C12.1998 2.32016 15.3953 0.411201 19.9784 0.611043V0.611043Z" fill="#FFD270"/>
<path d="M27.7725 5.52518C27.725 5.34437 27.6584 5.16356 27.567 4.98465C26.8856 3.63525 24.9862 2.46094 22.6833 1.89187C21.9086 1.70154 21.0902 1.57783 20.2566 1.53977C20.2395 1.53977 20.2262 1.53977 20.209 1.53786C19.8246 1.52074 19.4515 1.52264 19.0937 1.54167C18.3267 1.58164 17.6263 1.70154 17.0135 1.88806C15.6241 2.30678 14.6934 3.06808 14.4783 4.01209C14.4136 4.3071 14.4155 4.62113 14.4974 4.94659C14.682 5.68124 15.2377 6.38354 16.0447 6.98878C16.5776 7.38846 17.219 7.74627 17.9384 8.04127C18.2354 8.16499 18.5437 8.27728 18.8615 8.37625C19.6381 8.62177 20.4755 8.79877 21.3396 8.88442C21.5794 8.91106 21.8211 8.92819 22.0647 8.93771C25.7304 9.09948 28.2864 7.57308 27.7725 5.52708V5.52518Z" fill="#FFBD39"/>
<path d="M29.4804 6.63862L29.2482 8.02609C28.9113 10.0397 25.9993 11.4234 22.0634 11.2521C17.4823 11.0523 13.2476 8.81785 12.6081 6.26178C12.5186 5.90206 12.5034 5.55567 12.5586 5.22451L12.7908 3.83704C12.7356 4.1663 12.7489 4.51459 12.8403 4.87431C13.4798 7.42847 17.7126 9.66289 22.2956 9.86463C26.2315 10.0378 29.1435 8.65226 29.4804 6.63862V6.63862Z" fill="#FFBD39"/>
<path d="M27.5691 4.98461C26.3967 3.31355 23.4181 1.98508 20.2454 1.84615C17.343 1.71863 15.1104 2.62458 14.4805 4.01014C14.8345 2.45709 17.1298 1.40079 20.2112 1.53592C23.5495 1.68056 26.6556 3.17462 27.5691 4.98461V4.98461Z" fill="#F1A915"/>
<path d="M17.5586 7.32354C17.2085 7.15225 16.8849 6.96573 16.5918 6.76779L17.4426 2.28183C17.7718 2.19808 18.1182 2.13337 18.4874 2.0896L17.5586 7.32354Z" fill="#FFD270"/>
<path d="M20.9374 8.3342C20.4311 8.26188 19.9324 8.16101 19.4414 8.02587L20.6557 2.06299C21.1391 2.10296 21.6225 2.17147 22.1022 2.27044L20.9374 8.3342V8.3342Z" fill="#FFD270"/>
<path d="M47.2715 8.51714C46.7748 10.4984 43.4917 12.2323 39.9364 12.3883C36.383 12.5444 33.905 11.0637 34.3998 9.0805C34.8947 7.09731 38.1778 5.36535 41.7331 5.20928C45.2864 5.05322 47.7664 6.53395 47.2696 8.51523L47.2715 8.51714Z" fill="#FFD270"/>
<path d="M40.1153 11.6688C40.3037 11.6612 40.4903 11.6479 40.6768 11.6269C41.3467 11.5603 41.9976 11.4233 42.5991 11.233C42.8465 11.1568 43.0863 11.0693 43.3166 10.9741C43.8742 10.7438 44.371 10.4679 44.784 10.1576C45.4102 9.68942 45.8403 9.14319 45.983 8.57412C46.0459 8.32099 46.0478 8.07737 45.9983 7.84898C45.8308 7.11813 45.1095 6.52812 44.0322 6.20267C43.5564 6.05802 43.014 5.96476 42.4183 5.93431C42.1404 5.91908 41.8511 5.91908 41.5523 5.9305C41.539 5.9305 41.5294 5.9305 41.5161 5.9305C40.869 5.96096 40.2333 6.05612 39.6338 6.20457C37.8466 6.64613 36.3735 7.55778 35.8444 8.60457C35.774 8.74351 35.7226 8.88245 35.6846 9.02329C35.2868 10.6106 37.27 11.7944 40.1134 11.6688H40.1153Z" fill="#FFBD39"/>
<path d="M34.3643 9.88543L34.5451 10.9627C34.8058 12.5252 37.065 13.5987 40.1197 13.4654C43.6731 13.3094 46.9581 11.5774 47.4548 9.59423C47.5252 9.31445 47.5348 9.04609 47.4929 8.78915L47.3121 7.71191C47.3559 7.96885 47.3444 8.23721 47.274 8.51699C46.7773 10.4983 43.4942 12.2321 39.9389 12.3882C36.8861 12.5214 34.6269 11.448 34.3643 9.88543V9.88543Z" fill="#FFBD39"/>
<path d="M35.8467 8.60463C36.7564 7.30852 39.067 6.27695 41.5279 6.17037C43.7794 6.0714 45.5114 6.77561 45.9986 7.84904C45.7246 6.64428 43.9431 5.82398 41.5545 5.93056C38.9661 6.04285 36.5566 7.20193 35.8467 8.60653V8.60463Z" fill="#F1A915"/>
<path d="M43.608 10.4185C43.8802 10.2853 44.1295 10.1406 44.3579 9.98648L43.6975 6.50734C43.4425 6.44263 43.1722 6.39315 42.8867 6.35889L43.608 10.4185V10.4185Z" fill="#FFD270"/>
<path d="M40.989 11.2026C41.3811 11.1474 41.7693 11.0675 42.15 10.9647L41.2079 6.33789C40.8329 6.37025 40.458 6.42163 40.085 6.49967L40.989 11.2026Z" fill="#FFD270"/>
</g>
<defs>
<clipPath id="clip0_4658_69200">
<rect width="47.5584" height="36" fill="white"/>
</clipPath>
</defs>
</svg>
